<svg xmlns="http://www.w3.org/2000/svg" viewBox="0 0 64.35 65.72"><defs><style>.cls-1{fill:#d8d8d8;stroke:#353535;stroke-miterlimit:10;stroke-width:0.56px;}</style></defs><title>army not occupiedAsset 36</title><g id="Layer_2" data-name="Layer 2"><g id="Layer_1-2" data-name="Layer 1"><path class="cls-1" d="M19.18,38.36a14.79,14.79,0,0,0-4,6.73c-.34,1.12-1.53,2-2.48,2.89a3.4,3.4,0,0,0-1.42,3,4.25,4.25,0,0,1-.62,2c-.56,1.18-1.21,2.32-1.84,3.48a1.92,1.92,0,0,1-.51.72c-2.6,1.72-2.75,4.09-1.87,6.76.27.84.06,1.4-.93,1.44a25.82,25.82,0,0,1-3.17.09c-2-.14-2.42-.84-1.9-2.79.23-.87.61-1.71.87-2.58.37-1.31,1.19-2.55.44-4A1.78,1.78,0,0,1,2,54.56c1.68-2.71,2.37-6,4.72-8.33.49-.5.51-1.52.66-2.33a20.46,20.46,0,0,1,.2-2.1,15.12,15.12,0,0,0,.13-7.17c-.07-.36,0-1,.25-1.11,1.67-1,.76-2.38.72-3.62a14,14,0,0,1-.25-2.09,10.73,10.73,0,0,1,.85-2.25,3.77,3.77,0,0,0-.67-.14c-1-.1-1.2-.65-1-1.57A27.22,27.22,0,0,0,8.11,20c.06-1.13.55-1.46,1.61-1.47,1.93,0,1.93-.06,1.71-2C11,12.78,13.06,9,16.21,8.1a21,21,0,0,1,4.09-.32.66.66,0,0,0,.06-.41c-.71-4,1.07-6.48,5-7,2.28-.32,4.2.71,6,1.79.67.41.77,1.86,1,2.87.29,1.22-.32,1.88-1.5,2.19a1.09,1.09,0,0,0-.53.87,1.3,1.3,0,0,0,.55.95c1,.45,3.44-.61,3.75-1.22a11.69,11.69,0,0,0,3,.91c4.85.09,9.71,0,14.56.06a13.36,13.36,0,0,1,2.07.33l.16-2A26.69,26.69,0,0,0,56,9.55a1.89,1.89,0,0,0,1.25.63c1.86,0,3.71-.12,5.57-.15a6,6,0,0,1,1.25.26l0,.46c-.87.06-1.74.16-2.61.16-2.12,0-4.32-.38-6.33.06-2.73.61-5.42.4-8.13.58A3.56,3.56,0,0,0,44,16c.08.29.15.58-.11.73a13.27,13.27,0,0,0-1.34,2.24,4.57,4.57,0,0,1-5.24,3.24c-2.24-.49-4.43-1.25-6.77-1.93l-.46,1c.07.13.09.19.12.21,3.16,1.62,1.11,4.31,1.24,6.49.1,1.69-.84,2.27-2.52,2.29-.31,0-.92.63-.87.83a6.74,6.74,0,0,0,1,2.13c1.56,2.15,3.24,4.22,4.79,6.38a34.1,34.1,0,0,1,2.3,3.81c.94,1.77.29,3.65.21,5.49-.07,1.49-.06,3-.21,4.48-.12,1.13-.55,2.24-.64,3.37a5.1,5.1,0,0,0,3.8,5.26c1,.27,2.51.24,2.34,1.63s-1.69.74-2.54.76a51.93,51.93,0,0,1-5.27-.41c-.95-.07-1.91-.09-2.86-.1-1.72,0-2-.35-1.51-2s1.2-3.11.72-4.83c-.25-.91-.57-1.8-.79-2.72-.53-2.22-1.28-4.37-.13-6.73.81-1.65.11-2.33-1.8-2.58A3.53,3.53,0,0,1,25.68,44a31.28,31.28,0,0,1-2.38-2.75,3.48,3.48,0,0,0-2.52-1.69C20.22,39.54,19.71,38.79,19.18,38.36ZM38,16c.71-.88,1.33-1.57,1.87-2.33.15-.21.07-.6.1-.91-.38,0-.88-.23-1.11-.06a23.33,23.33,0,0,0-2,1.84Z"/></g></g></svg>