<svg xmlns="http://www.w3.org/2000/svg" viewBox="0 0 63.8 106.84"><defs><style>.cls-1{fill:#e53b1e;stroke:#494949;stroke-miterlimit:10;stroke-width:0.8px;}</style></defs><title>blloon redAsset 12</title><g id="Layer_2" data-name="Layer 2"><g id="Layer_1-2" data-name="Layer 1"><g id="Layer_2-2" data-name="Layer 2"><g id="Layer_1-2-2" data-name="Layer 1-2"><path class="cls-1" d="M63.4,30.18a31.55,31.55,0,0,0-63,0c0,14.94,11.26,36.68,27.35,40L23.35,76a2.24,2.24,0,0,0,1.79,3.58h4.3a6.34,6.34,0,0,1-1.56,3.11,11.19,11.19,0,0,0-2.74,8.15A11.24,11.24,0,0,0,27.88,99a6.83,6.83,0,0,1,1.76,5.35,2.26,2.26,0,0,0,4.5,0,11.11,11.11,0,0,0-2.74-8.15,6.91,6.91,0,0,1-1.76-5.35,6.91,6.91,0,0,1,1.76-5.35A10.52,10.52,0,0,0,34,79.61h4.6a2.22,2.22,0,0,0,2.06-1.28,2.26,2.26,0,0,0-.2-2.35l-4.4-5.88c16.08-3.32,27.35-24.91,27.35-40ZM23.9,14a17.91,17.91,0,0,0-10,16.12,2.26,2.26,0,0,1-4.5,0A22.38,22.38,0,0,1,22,10a2.26,2.26,0,0,1,2,4Z"/></g></g></g></g></svg>