<svg xmlns="http://www.w3.org/2000/svg" viewBox="0 0 64.11 107.14"><defs><style>.cls-1{opacity:0.85;}.cls-2{fill:#65dd3b;stroke:#494949;stroke-miterlimit:10;stroke-width:1.11px;}</style></defs><title>blloon greenAsset 9</title><g id="Layer_2" data-name="Layer 2"><g id="Layer_1-2" data-name="Layer 1"><g id="Layer_2-2" data-name="Layer 2" class="cls-1"><g id="Layer_1-2-2" data-name="Layer 1-2"><path class="cls-2" d="M63.55,30.33a31.55,31.55,0,0,0-63,0c0,15,11.26,36.68,27.35,40l-4.4,5.88a2.23,2.23,0,0,0,1.79,3.58H29.6A6.32,6.32,0,0,1,28,82.87,11.25,11.25,0,0,0,25.29,91,11.3,11.3,0,0,0,28,99.18a6.76,6.76,0,0,1,1.76,5.34,2.26,2.26,0,0,0,4.5,0,11.11,11.11,0,0,0-2.74-8.15A6.91,6.91,0,0,1,29.79,91a6.89,6.89,0,0,1,1.76-5.34,10.63,10.63,0,0,0,2.6-5.92h4.59a2.22,2.22,0,0,0,2.06-1.27,2.26,2.26,0,0,0-.2-2.36l-4.4-5.88c16.08-3.32,27.35-24.91,27.35-40ZM24.05,14.16a17.92,17.92,0,0,0-10,16.12,2.26,2.26,0,0,1-4.5,0A22.38,22.38,0,0,1,22.14,10.12a2.26,2.26,0,0,1,2,4Z"/></g></g></g></g></svg>