<svg xmlns="http://www.w3.org/2000/svg" viewBox="0 0 64.79 65.02"><defs><style>.cls-1{fill:#d8d8d8;stroke:#353535;stroke-miterlimit:10;stroke-width:0.52px;}</style></defs><title>drone not occupiedAsset 49</title><g id="Layer_2" data-name="Layer 2"><g id="Layer_1-2" data-name="Layer 1"><path class="cls-1" d="M53.91,64.76H51.05a28.19,28.19,0,0,1-4.86-1.9c-5.09-3.15-6.92-9-4.84-14.76.16-.45.24-1.26,0-1.47-1.92-1.69-3.93-3.16-6.79-2.64a11.31,11.31,0,0,1-3.85,0c-2.65-.47-4.74.48-6.71,2.1a1.59,1.59,0,0,0-.55,2.12c1.68,4.93.94,9.36-2.89,13.14a13,13,0,0,1-7.07,3.39H10.9a3,3,0,0,0-.65-.23c-8.62-1.27-13-12.05-7.64-19a12,12,0,0,1,14.18-4.07c.47.17,1.34.18,1.59-.11,1.53-1.72,2.87-3.53,2.58-6.1a22.68,22.68,0,0,1,0-5,8.15,8.15,0,0,0-2.29-6.38c-.52-.61-.92-.81-1.68-.44a11.4,11.4,0,0,1-6.59.82A12.29,12.29,0,0,1,.6,15.32a12.19,12.19,0,0,1,5.09-13A12.05,12.05,0,0,1,23.48,16.83c-.16.44-.37,1.23-.17,1.39,1.49,1.2,2.82,2.75,5,2.73s4.41-.14,6.59.05c2.51.22,4.39-.85,6.21-2.35a1.11,1.11,0,0,0,.36-1.57,11.1,11.1,0,0,1-.83-6.15,11.17,11.17,0,0,1,7.53-9.77,11.38,11.38,0,0,1,12.08,2,13.07,13.07,0,0,1,4.26,7.39V14a25.06,25.06,0,0,1-1,3.25,12,12,0,0,1-15.33,6.34c-.52-.19-1.45-.25-1.73.05-1.61,1.78-2.95,3.69-2.6,6.37a20.14,20.14,0,0,1,0,4.72,8.05,8.05,0,0,0,2,6.05,1.72,1.72,0,0,0,2.36.69,11.62,11.62,0,0,1,14.14,4.35,28,28,0,0,1,2.19,4.89v4A36.2,36.2,0,0,1,62,59.93C60.11,62.74,57.21,64.14,53.91,64.76ZM21.15,16.82c2.39-4,1.09-9.58-2.8-12.5A9.93,9.93,0,0,0,4.88,5.56,10,10,0,0,0,4.76,19c3,3.48,8.58,4.54,11.94,2.2q-1.41-2-2.81-3.94c-1.47-2.07-2.24-3.13-4.71-.5a5.78,5.78,0,0,1-1.36,1,11.1,11.1,0,0,1-1.41.61L6.06,18c.88-1.14,1.82-2.25,2.63-3.44a3.52,3.52,0,0,0,.61-1.87,3.06,3.06,0,0,1,3.18-3.25,2.82,2.82,0,0,0,2.27-.86c1-.9,2.17-1.66,3.27-2.49l.56.57c-.93,1.2-1.84,2.42-2.79,3.6S14.9,12.17,16,13C17.67,14.3,19.38,15.52,21.15,16.82ZM18.57,58.36l-.55.58c-1-.77-2.12-1.47-3.09-2.31a3.19,3.19,0,0,0-2.63-1,2.67,2.67,0,0,1-2.91-2.82c.21-1.41-.55-2.08-1.26-3s-1.35-1.92-2-2.88l.55-.52c1.2.94,2.46,1.82,3.59,2.84.79.73,1.71.82,2.28.15,1.52-1.78,2.84-3.73,4.27-5.64a10,10,0,1,0,2,16.56c3.54-3,4.64-8.54,2.3-12.1-1.64,1.21-3.3,2.39-4.91,3.63-1.38,1-1.39,1.77-.3,3.07C16.84,56,17.69,57.21,18.57,58.36ZM58.75,18l-.42.45A6.68,6.68,0,0,1,57,17.8a28.19,28.19,0,0,1-2.54-2.09,1.46,1.46,0,0,0-2.27,0c-1.47,1.77-2.78,3.68-4.17,5.55a9.92,9.92,0,0,0,12.75-3.17,10.07,10.07,0,0,0-15-13.19c-3.2,2.9-4.44,8.34-2,11.9,1.76-1.3,3.55-2.55,5.26-3.92a1.55,1.55,0,0,0,.16-2.48,16.52,16.52,0,0,1-1.41-1.62c-.51-.73-.93-1.52-1.39-2.28l.48-.42c1.08.81,2.2,1.58,3.22,2.46a2.74,2.74,0,0,0,2.25.89,3.09,3.09,0,0,1,3.22,3.23,3.9,3.9,0,0,0,.69,2C57,15.79,57.9,16.87,58.75,18ZM43.62,48.16a10,10,0,0,0,16.58,11,10.15,10.15,0,0,0-.32-13.35c-3.25-3.64-9.29-3.95-11.77-1.93,1.26,1.72,2.49,3.47,3.8,5.16.8,1,1.67,1,2.68.17.84-.71,1.67-1.43,2.55-2.08a4.84,4.84,0,0,1,1.29-.48l.32.41c-.86,1.11-1.77,2.19-2.55,3.35a3.93,3.93,0,0,0-.68,2c0,1.63-1.25,3.35-2.8,3.17s-2.26.64-3.21,1.42-1.85,1.29-2.78,1.92l-.5-.54c.94-1.2,1.84-2.45,2.84-3.61.82-1,.83-1.86-.09-2.6C47.27,50.78,45.48,49.53,43.62,48.16Z"/></g></g></svg>