<svg xmlns="http://www.w3.org/2000/svg" viewBox="0 0 64.72 101.8"><defs><style>.cls-1{fill:#e53b1e;stroke:#494949;stroke-miterlimit:10;stroke-width:0.8px;}</style></defs><title>fire redAsset 5</title><g id="Layer_2" data-name="Layer 2"><g id="Layer_1-2" data-name="Layer 1"><g id="Layer_2-2" data-name="Layer 2"><g id="Layer_1-2-2" data-name="Layer 1-2"><path class="cls-1" d="M61.67,50.34c-1.85-8.49-3.45-15.82-.28-22.4a1.56,1.56,0,0,0-.17-1.66,1.58,1.58,0,0,0-1.57-.58c-.38,0-8.87,1.79-14.29,13.77a44.37,44.37,0,0,1-5.64-9.09,38.53,38.53,0,0,1-2.18-28A1.58,1.58,0,0,0,37.11.82,1.59,1.59,0,0,0,35.46.51,27,27,0,0,0,26.5,7c-3.92,4.29-8.4,11.82-7.43,23.73a84.43,84.43,0,0,1,.22,13.77,27.29,27.29,0,0,0-5.15-9.63,24.91,24.91,0,0,0-6.38-5.64A1.57,1.57,0,0,0,5.43,30.9c1.93,10.39,0,16.29-2,22.55a48,48,0,0,0-3,16,32,32,0,1,0,63.92,0A89.24,89.24,0,0,0,61.67,50.34ZM44.14,95.78H42a13.7,13.7,0,0,0,3.82-9.61A55.17,55.17,0,0,0,34,52.57a30.15,30.15,0,0,1-3.38,18.56,17.22,17.22,0,0,0-6.74-5C22.22,76.27,18.84,80,18.84,86.39a13.71,13.71,0,0,0,4.24,9.53H20.94a25.37,25.37,0,0,1-3-1.57A18.92,18.92,0,0,1,12.1,78.68c.43-5.26,4.44-13.81,11-22.46l4.35,2.65C27.28,48.17,32.34,34,32.34,34c3.32,15,21.94,18.8,21.94,42.63a23.74,23.74,0,0,1-8.39,18.2,12.62,12.62,0,0,1-1.75.91Z"/></g></g></g></g></svg>