<svg xmlns="http://www.w3.org/2000/svg" viewBox="0 0 64.65 91.2"><defs><style>.cls-1{fill:#d8d8d8;stroke:#353535;stroke-miterlimit:10;stroke-width:0.8px;}</style></defs><title>firefighter not occupiedAsset 45</title><g id="Layer_2" data-name="Layer 2"><g id="Layer_1-2" data-name="Layer 1"><path class="cls-1" d="M50,38.49A18.54,18.54,0,0,0,39.6,21.59c-3-1.57-3.4-3.37-2.59-6.35l5.71-.42V8.09H27.13C25.4,1.83,21.38-.81,16.57.92c-5,1.77-6.2,6.33-3.42,12.57C3.11,22.28.55,27,.43,37.29.37,42,.45,46.71.4,51.42c0,2.27,0,4.26,3.2,4.19,3-.07,3-2,3-4.1.07-5.89-.11-11.79.29-17.65.57-8.28,7.45-15.53,15.27-16.64l1,.87c-.89,1-1.58,2.35-2.68,3C13.6,25,9.64,30.83,9.57,38.81c-.15,16.13-.05,32.26-.11,48.39,0,2.5.87,3.62,3.51,3.6q16.79-.12,33.56,0c2.57,0,3.56-1,3.55-3.56C50,71,50.14,54.73,50,38.49ZM18.89,11.66c-1-1.77-2.14-2.86-2-3.7a3.23,3.23,0,0,1,2.42-2.07A3.27,3.27,0,0,1,21.49,8.3C21.51,9.15,20.2,10.06,18.89,11.66Z"/><path class="cls-1" d="M64.25,11.46V9c0-4.59-.44-5.37-5-4.68A50.66,50.66,0,0,0,47.67,8c-2,.82-1.28,6.51.75,7.42a64.17,64.17,0,0,0,7.47,3c6.29,1.94,8.36.39,8.36-6Z"/></g></g></svg>