<svg xmlns="http://www.w3.org/2000/svg" viewBox="0 0 64.96 102.04"><defs><style>.cls-1{opacity:0.85;}.cls-2{fill:#65dd3b;stroke:#494949;stroke-miterlimit:10;stroke-width:1.04px;}</style></defs><title>fire greenAsset 4</title><g id="Layer_2" data-name="Layer 2"><g id="Layer_1-2" data-name="Layer 1"><g id="Layer_2-2" data-name="Layer 2" class="cls-1"><g id="Layer_1-2-2" data-name="Layer 1-2"><path class="cls-2" d="M61.79,50.46c-1.85-8.49-3.45-15.82-.28-22.4a1.58,1.58,0,0,0-1.74-2.24c-.38,0-8.87,1.79-14.29,13.77a44.37,44.37,0,0,1-5.64-9.09,38.53,38.53,0,0,1-2.18-28A1.58,1.58,0,0,0,37.23.94,1.59,1.59,0,0,0,35.58.63a27,27,0,0,0-9,6.52C22.7,11.44,18.22,19,19.19,30.88a84.43,84.43,0,0,1,.22,13.77A27.29,27.29,0,0,0,14.26,35a24.89,24.89,0,0,0-6.38-5.64,1.57,1.57,0,0,0-1.69.07A1.58,1.58,0,0,0,5.55,31c1.93,10.39,0,16.29-2,22.54a48.13,48.13,0,0,0-3,16,32,32,0,0,0,63.92,0A89.24,89.24,0,0,0,61.79,50.46ZM44.26,95.9H42.13A13.7,13.7,0,0,0,46,86.29a55.23,55.23,0,0,0-11.81-33.6,30.15,30.15,0,0,1-3.38,18.56,17.12,17.12,0,0,0-6.74-5C22.34,76.39,19,80.07,19,86.51A13.71,13.71,0,0,0,23.2,96H21.06a25.37,25.37,0,0,1-3-1.57A18.93,18.93,0,0,1,12.22,78.8c.42-5.26,4.44-13.81,11-22.46L27.54,59c-.14-10.7,4.92-24.9,4.92-24.9,3.32,15,21.94,18.8,21.94,42.63A23.74,23.74,0,0,1,46,94.92a12.62,12.62,0,0,1-1.75.91Z"/></g></g></g></g></svg>