<svg xmlns="http://www.w3.org/2000/svg" viewBox="0 0 65.05 41.83"><defs><style>.cls-1{fill:#d8d8d8;stroke:#353535;stroke-miterlimit:10;stroke-width:0.65px;}</style></defs><title>gun not occupiedAsset 28</title><g id="Layer_2" data-name="Layer 2"><g id="Layer_1-2" data-name="Layer 1"><path class="cls-1" d="M1.59,7.06c-.25-.57-.43-1-.59-1.38A11.34,11.34,0,0,1,.36,4,1.34,1.34,0,0,1,1.6,2.37a1.35,1.35,0,0,1,.86.51C3.1,3.6,3.67,4.4,4.29,5.14A9.29,9.29,0,0,0,5.23,6c.37-.68.75-1.26,1-1.89A3.07,3.07,0,0,1,9.43,2.17q20.57,0,41.12,0a1.29,1.29,0,0,0,1.06-.45A4.22,4.22,0,0,1,55,.33c1.15,0,2.31,0,3.46,0a3.2,3.2,0,0,1,3,1.58.74.74,0,0,0,.48.26c.42,0,.85,0,1.28,0,1.19,0,1.7.65,1.4,1.81s-.69,2.52-1,3.79L62.38,12.3a1.78,1.78,0,0,1-2,1.57c-6.06,0-12.12,0-18.18,0a4.67,4.67,0,0,0-4.69,2.81c-.61,1.35-1,2.78-1.57,4.18-.29.78-.54,1.58-.86,2.35a4.47,4.47,0,0,1-4.33,2.72c-2.34.13-4.7.15-7,.3a10.26,10.26,0,0,0-2.5.55,2.26,2.26,0,0,0-1.56,1.74c-.58,2.51-1.14,5-1.7,7.53a3.16,3.16,0,0,0,.31,2.17c.89,1.79-.05,3.28-2.06,3.28-4.2,0-8.41,0-12.62,0a1.26,1.26,0,0,1-1.17-.64,4.63,4.63,0,0,1-.46-3.61A15.23,15.23,0,0,1,3,34.14,47,47,0,0,0,6.51,25a15.44,15.44,0,0,0,.21-7.58C6.14,15.19,5,14.48,3.17,14.61c-.59,0-1.18,0-1.76,0a.82.82,0,0,1-.92-.92c0-1.9,0-3.8,0-5.7C.49,7.39.7,7,1.59,7.06Zm22.49,7.66-.22-.18-.45.68a5.61,5.61,0,0,0-.71,1.22c-.57,2.14-1.13,4.28-1.58,6.44-.22,1,.1,1.3,1.15,1.31,1.8,0,3.61,0,5.42,0,.74,0,1.49-.06,2.23-.14a3.57,3.57,0,0,0,3.31-2.3c.53-1.45,1.05-2.92,1.45-4.41a7.15,7.15,0,0,0,.14-2.22c0-.9-.47-1.24-1.35-1.24-1.34,0-2.67,0-4,0a3,3,0,0,0-2.92,2.73,13.71,13.71,0,0,0,.33,2.53c.08.44.27.86.33,1.31a.69.69,0,0,1-.27.58,1.05,1.05,0,0,1-.8,0,1.43,1.43,0,0,1-.52-.68,19.76,19.76,0,0,1-1-2.52C24.39,16.78,24.27,15.74,24.08,14.72Z"/></g></g></svg>