<svg xmlns="http://www.w3.org/2000/svg" viewBox="0 0 64.46 64.47"><defs><style>.cls-1{fill:#d8d8d8;stroke:#353535;stroke-miterlimit:10;stroke-width:0.54px;}</style></defs><title>drone not occupiedAsset 24</title><g id="Layer_2" data-name="Layer 2"><g id="Layer_1-2" data-name="Layer 1"><path class="cls-1" d="M13.5,48.87l.61-.8q5.59-7.38,11.21-14.74a.43.43,0,0,0,0-.63Q16.08,19.81,6.84,6.91a.5.5,0,0,1,0-.62c.78-1.34,1.51-2.72,2.33-4A7.39,7.39,0,0,1,10.52.79,2,2,0,0,1,12.27.32a1.55,1.55,0,0,1,.65.3c1.5,1.23,3,2.45,4.47,3.74,4.56,4,9.09,8.11,13.66,12.14a22,22,0,0,0,3.09,2.37,19.71,19.71,0,0,0,3.09,1.33.85.85,0,0,0,.67-.13,14.92,14.92,0,0,0,1.36-1.14,32.69,32.69,0,0,1,6.39-4.7,2.86,2.86,0,0,1,.47-.22,1.16,1.16,0,0,1,1.41.36c.18.21.32.18.55.05.77-.4,1.55-.78,2.35-1.12a.75.75,0,0,1,.66.07.77.77,0,0,1,.06.67c-.32.77-.7,1.51-1.06,2.26a3.61,3.61,0,0,1-.23.36,3,3,0,0,0,.28.32,1.16,1.16,0,0,1,.25,1.47,17.42,17.42,0,0,1-1,1.78,32.22,32.22,0,0,1-4.13,5.26,10.71,10.71,0,0,0-.8,1,.92.92,0,0,0-.14,1A15.38,15.38,0,0,0,47.61,33q6.48,7.24,12.93,14.54c1.09,1.23,2.13,2.49,3.16,3.77a1.92,1.92,0,0,1,0,2.53,5.9,5.9,0,0,1-1.84,1.68C60.61,56.3,59.3,57,58,57.71a.47.47,0,0,1-.39-.07l-7.15-5.11L31.72,39.11a.4.4,0,0,0-.57,0q-7.63,5.81-15.28,11.59c-.24.19-.28.33-.11.56.73.95,1.43,1.92,2.18,2.86,1.39,1.74,2.81,3.46,4.21,5.2.24.3.44.63.67.93a.61.61,0,0,1,0,.78,11.68,11.68,0,0,1-1,1.14,9.63,9.63,0,0,1-2.71,1.93.85.85,0,0,1-1-.16c-1.58-1.26-3.13-2.57-4.81-3.69a37.21,37.21,0,0,1-4.92-3.82,24.54,24.54,0,0,1-3.95-4.9A50.28,50.28,0,0,0,.41,46.12a1,1,0,0,1-.14-.56.84.84,0,0,1,.14-.39,10.07,10.07,0,0,1,2.77-3.41c.5-.39.66-.4,1.17,0,1.74,1.36,3.46,2.74,5.19,4.12,1,.81,2,1.62,3,2.41A9.4,9.4,0,0,0,13.5,48.87Z"/></g></g></svg>