<svg xmlns="http://www.w3.org/2000/svg" viewBox="0 0 63.21 63.29"><defs><style>.cls-1{opacity:0.85;}.cls-2{fill:#65dd3b;stroke:#494949;stroke-miterlimit:10;stroke-width:0.74px;}</style></defs><title>kite greenAsset 16</title><g id="Layer_2" data-name="Layer 2"><g id="Layer_1-2" data-name="Layer 1"><g id="Layer_2-2" data-name="Layer 2" class="cls-1"><g id="Layer_1-2-2" data-name="Layer 1-2"><path class="cls-2" d="M58.33.37c-.24,0-.48.08-.72.09L32.42,1c-1,0-1.13.11-1.4,1.06Q25.64,21.11,20.27,40.15a2.68,2.68,0,0,1-.66,1.14,32.64,32.64,0,0,0-5.86,6.82.69.69,0,0,1-.55.24A60.31,60.31,0,0,0,1.29,49.56c-.64.12-1,.47-.9.93s.49.73,1.13.64c2.41-.34,4.82-.73,7.23-1,1.33-.16,2.67-.17,4-.24-.27,1-.57,1.84-.74,2.72a8.8,8.8,0,0,0,3.39,9,6.62,6.62,0,0,0,8.35-.35,6.76,6.76,0,0,0,1.59-8.18c-1.23-2.35-3.39-3.37-5.78-4-1.31-.33-2.66-.5-4-.75.08-.13.14-.25.22-.36a32.1,32.1,0,0,1,5.31-5.86,1.08,1.08,0,0,1,.53-.25l16.45-4.15L60.45,32.1a1.05,1.05,0,0,0,.92-1.1c0-.94.08-1.88.12-2.81.18-3.63.35-7.27.53-10.9q.28-5.8.58-11.64c.06-1.19.16-2.37.24-3.57V.37ZM21.41,51.47a5.12,5.12,0,1,1-4.17,9.35,4.92,4.92,0,0,1-1.36-.89,7.65,7.65,0,0,1-2.51-5.76,10,10,0,0,1,1-3.94.49.49,0,0,1,.39-.26,17,17,0,0,1,6.69,1.5ZM60.05,2c-4.69,4.55-9.27,9-13.79,13.4L33.43,2.55ZM56.76,18.74V14.17a1.08,1.08,0,0,1,2.15-.2v4.77a1.08,1.08,0,0,1-2.15.21Zm1.08-7a1.08,1.08,0,1,1,1.07-1.09v0a1.09,1.09,0,0,1-1.07,1.05ZM23.74,39.7l-.08-.11L46.11,17.74c4.37,4.36,8.66,8.66,13,13Z"/></g></g></g></g></svg>