<svg xmlns="http://www.w3.org/2000/svg" viewBox="0 0 63.27 63.34"><defs><style>.cls-1{fill:#e5dc33;stroke:#494949;stroke-miterlimit:10;stroke-width:0.8px;}</style></defs><title>kite yellowAsset 20</title><g id="Layer_2" data-name="Layer 2"><g id="Layer_1-2" data-name="Layer 1"><g id="Layer_2-2" data-name="Layer 2"><g id="Layer_1-2-2" data-name="Layer 1-2"><path class="cls-1" d="M58.36.4c-.24,0-.48.08-.72.09L32.45,1c-1,0-1.14.11-1.41,1.06q-5.37,19-10.74,38.11a2.68,2.68,0,0,1-.66,1.14,32.64,32.64,0,0,0-5.86,6.82.69.69,0,0,1-.55.24A59.74,59.74,0,0,0,1.31,49.59c-.63.12-1,.47-.89.93s.49.73,1.12.64c2.42-.34,4.82-.73,7.24-1,1.33-.16,2.66-.17,4-.24-.27,1-.57,1.83-.74,2.72a8.78,8.78,0,0,0,3.39,9,6.59,6.59,0,0,0,8.35-.35,6.74,6.74,0,0,0,1.59-8.17c-1.23-2.35-3.39-3.37-5.78-4-1.31-.33-2.66-.5-4-.75.08-.13.13-.25.21-.36a33.25,33.25,0,0,1,5.31-5.87,1.4,1.4,0,0,1,.54-.25L38.1,37.73l22.38-5.61A1,1,0,0,0,61.4,31c0-.94.08-1.88.12-2.81.18-3.63.35-7.27.53-10.9q.29-5.82.58-11.64c.06-1.19.16-2.38.24-3.57V.4ZM21.43,51.49A5.12,5.12,0,1,1,15.9,60a7.65,7.65,0,0,1-2.5-5.76,10,10,0,0,1,1-3.94.47.47,0,0,1,.39-.26,17.11,17.11,0,0,1,6.68,1.49ZM60.07,2c-4.69,4.55-9.26,9-13.78,13.4L33.46,2.58ZM56.79,18.77V14.2A1.08,1.08,0,0,1,58.94,14v4.78A1.09,1.09,0,0,1,58,20a1.08,1.08,0,0,1-1.18-1A.74.74,0,0,1,56.79,18.77Zm1.08-7a1.08,1.08,0,1,1,1.07-1.09v0a1.09,1.09,0,0,1-1.07,1ZM23.77,39.73l-.08-.11L46.14,17.76c4.36,4.37,8.65,8.67,13,13Z"/></g></g></g></g></svg>