<svg xmlns="http://www.w3.org/2000/svg" viewBox="0 0 64.45 64.45"><defs><style>.cls-1{fill:#d8d8d8;stroke:#353535;stroke-miterlimit:10;stroke-width:0.73px;}</style></defs><title>medical not occupiedAsset 32</title><g id="Layer_2" data-name="Layer 2"><g id="Layer_1-2" data-name="Layer 1"><path class="cls-1" d="M62.36,21.36H43.1V2.09A1.74,1.74,0,0,0,41.37.36H23.09a1.73,1.73,0,0,0-1.73,1.73V21.36H2.09A1.73,1.73,0,0,0,.36,23.09V41.37A1.74,1.74,0,0,0,2.09,43.1H21.36V62.36a1.72,1.72,0,0,0,1.73,1.73H41.37a1.73,1.73,0,0,0,1.73-1.73V43.1H62.36a1.73,1.73,0,0,0,1.73-1.73V23.09A1.72,1.72,0,0,0,62.36,21.36Z"/></g></g></svg>