<svg xmlns="http://www.w3.org/2000/svg" viewBox="0 0 64.29 54.7"><defs><style>.cls-1{fill:#d8d8d8;stroke:#353535;stroke-miterlimit:10;stroke-width:0.13px;}</style></defs><title>police not occupiedAsset 41</title><g id="Layer_2" data-name="Layer 2"><g id="Layer_1-2" data-name="Layer 1"><path class="cls-1" d="M6.67,33.58c-.43-.64-.74-1.26.28-1.9,16.68,9.61,33.57,9.62,50.32,0,.93.65.94.71.45,1.66a40,40,0,0,1,2.34,4.17,5.42,5.42,0,0,1-1.55,6.66,41.42,41.42,0,0,1-12.88,7.57,42,42,0,0,1-10.81,2.74,31.23,31.23,0,0,1-12.3-1.37A44.46,44.46,0,0,1,6.54,45C3.28,42.3,2.83,39.42,5,35.81c.34-.56.75-1.07,1.13-1.6C6.3,34,6.45,33.85,6.67,33.58Z"/><path class="cls-1" d="M62.75,14.06a12.6,12.6,0,0,0-2.22-1.77A135.37,135.37,0,0,0,35.88.73a10.84,10.84,0,0,0-7.57,0,138.62,138.62,0,0,0-23.62,11,17.85,17.85,0,0,0-3.13,2.34A4.69,4.69,0,0,0,.72,20a15.41,15.41,0,0,0,5.21,5.35,1.45,1.45,0,0,0,.76,2.29c2.36,1.12,4.72,2.27,7.15,3.24A51.57,51.57,0,0,0,30.5,34.67a44.05,44.05,0,0,0,14.33-1.92,68.64,68.64,0,0,0,12.64-5.06,1.67,1.67,0,0,0,.94-2.47,15.37,15.37,0,0,0,5.16-5.29A4.76,4.76,0,0,0,62.75,14.06ZM40.46,13l-2.81,4.49,2.73,4.56a.26.26,0,0,1-.22.39l-5,.07-2.88,4.43a.26.26,0,0,1-.44,0l-2.77-4.44-5-.17a.26.26,0,0,1-.21-.4l2.8-4.49-2.73-4.56a.26.26,0,0,1,.22-.4l5-.06L32,8a.26.26,0,0,1,.44,0l2.77,4.44,5,.18A.27.27,0,0,1,40.46,13Z"/></g></g></svg>