<svg xmlns="http://www.w3.org/2000/svg" viewBox="0 0 37.94 65.03"><defs><style>.cls-1{fill:#fff;}</style></defs><title>Asset 7</title><g id="Layer_2" data-name="Layer 2"><g id="Layer_1-2" data-name="Layer 1"><path class="cls-1" d="M37.94,19A19,19,0,0,0,0,19C0,28,6.78,41.09,16.47,43.07l-2.65,3.54a1.35,1.35,0,0,0,1.08,2.16h2.59a3.81,3.81,0,0,1-.94,1.87,6.75,6.75,0,0,0-1.65,4.91,6.77,6.77,0,0,0,1.65,4.91,4.1,4.1,0,0,1,1.06,3.22,1.36,1.36,0,0,0,2.71,0,6.71,6.71,0,0,0-1.65-4.91,4.15,4.15,0,0,1-1.06-3.22,4.14,4.14,0,0,1,1.06-3.22,6.36,6.36,0,0,0,1.56-3.56H23A1.35,1.35,0,0,0,24.24,48a1.37,1.37,0,0,0-.12-1.42l-2.65-3.54c9.68-2,16.47-15,16.47-24.1ZM14.15,9.26a10.8,10.8,0,0,0-6,9.71,1.36,1.36,0,0,1-2.71,0A13.48,13.48,0,0,1,13,6.83a1.36,1.36,0,0,1,1.2,2.43Z"/></g></g></svg>