<svg xmlns="http://www.w3.org/2000/svg" viewBox="0 0 40.8 64.5"><defs><style>.cls-1{fill:#fff;}</style></defs><title>Asset 6</title><g id="Layer_2" data-name="Layer 2"><g id="Layer_1-2" data-name="Layer 1"><path class="cls-1" d="M39.11,31.91c-1.18-5.42-2.2-10.1-.18-14.3a1,1,0,0,0-.11-1.06,1,1,0,0,0-1-.37c-.24,0-5.66,1.14-9.12,8.79a28.49,28.49,0,0,1-3.6-5.8A24.6,24.6,0,0,1,23.71,1.3a1,1,0,0,0-.28-1,1,1,0,0,0-1.05-.2,17.24,17.24,0,0,0-5.72,4.16C14.16,7,11.3,11.81,11.92,19.41a54.7,54.7,0,0,1,.14,8.79,17.52,17.52,0,0,0-3.29-6.15,15.94,15.94,0,0,0-4.07-3.6,1,1,0,0,0-1.08.05,1,1,0,0,0-.41,1c1.23,6.63,0,10.4-1.28,14.39A30.7,30.7,0,0,0,0,44.1a20.4,20.4,0,0,0,40.8,0A56.82,56.82,0,0,0,39.11,31.91Zm-11.19,29H26.56A8.73,8.73,0,0,0,29,54.78a35.24,35.24,0,0,0-7.54-21.45,19.21,19.21,0,0,1-2.16,11.85A10.88,10.88,0,0,0,15,42c-1.07,6.46-3.23,8.81-3.23,12.92A8.73,8.73,0,0,0,14.48,61H13.11a16,16,0,0,1-1.89-1A12.08,12.08,0,0,1,7.47,50c.27-3.36,2.83-8.82,7-14.34l2.78,1.69c-.09-6.83,3.14-15.89,3.14-15.89,2.12,9.55,14,12,14,27.21a15.16,15.16,0,0,1-5.35,11.62C28.68,60.51,28.31,60.7,27.92,60.87Z"/></g></g></svg>