<svg xmlns="http://www.w3.org/2000/svg" viewBox="0 0 62.59 62.64"><defs><style>.cls-1{fill:#fff;}</style></defs><title>Asset 8</title><g id="Layer_2" data-name="Layer 2"><g id="Layer_1-2" data-name="Layer 1"><path class="cls-1" d="M58.07,0c-.24,0-.48.08-.72.09L32.11.61c-1,0-1.14.11-1.41,1.06q-5.39,19.1-10.77,38.19A2.61,2.61,0,0,1,19.27,41a32.79,32.79,0,0,0-5.87,6.84.69.69,0,0,1-.55.24A59.9,59.9,0,0,0,.91,49.29c-.64.12-1,.47-.9.93s.49.73,1.13.64c2.42-.34,4.83-.73,7.25-1,1.33-.16,2.67-.17,4-.24-.27,1-.57,1.84-.74,2.73a8.8,8.8,0,0,0,3.39,9A6.62,6.62,0,0,0,23.41,61,6.76,6.76,0,0,0,25,52.81c-1.23-2.36-3.39-3.38-5.79-4-1.31-.33-2.66-.5-4-.75.08-.13.14-.25.22-.36a32.64,32.64,0,0,1,5.32-5.88,1.22,1.22,0,0,1,.54-.25l16.48-4.16L60.2,31.79a1.05,1.05,0,0,0,.92-1.1c0-.94.08-1.88.12-2.81.18-3.64.35-7.29.53-10.93q.28-5.82.58-11.66c.06-1.19.16-2.38.24-3.58V0Zm-37,51.2a5.13,5.13,0,1,1-5.54,8.48,7.67,7.67,0,0,1-2.51-5.77,10,10,0,0,1,1-3.95.5.5,0,0,1,.39-.26A17.18,17.18,0,0,1,21.11,51.2ZM59.79,1.62c-4.7,4.56-9.28,9-13.81,13.43L33.12,2.18ZM56.5,18.41V13.83a1.08,1.08,0,1,1,2.15,0v4.58a1.08,1.08,0,1,1-2.15,0Zm1.08-7a1.08,1.08,0,1,1,1.07-1.07A1.08,1.08,0,0,1,57.58,11.39Zm-34.17,28-.08-.11L45.83,17.4c4.37,4.37,8.67,8.68,13,13.07Z"/></g></g></svg>