<svg xmlns="http://www.w3.org/2000/svg" xmlns:xlink="http://www.w3.org/1999/xlink" viewBox="0 0 97.5 97.5"><defs><style>.cls-1{fill:url(#linear-gradient);}.cls-2{fill:url(#linear-gradient-2);}</style><linearGradient id="linear-gradient" x1="2318.28" y1="890.44" x2="2318.28" y2="903.22" gradientTransform="matrix(8, 0, 0, -8, -18497.51, 7218)" gradientUnits="userSpaceOnUse"><stop offset="0" stop-color="#008975"/><stop offset="1" stop-color="#00e7f0"/></linearGradient><linearGradient id="linear-gradient-2" x1="2318.28" y1="890.44" x2="2318.28" y2="903.22" xlink:href="#linear-gradient"/></defs><title>Asset 16</title><g id="Layer_2" data-name="Layer 2"><g id="Layer_1-2" data-name="Layer 1"><path class="cls-1" d="M48.75,97.5A48.75,48.75,0,1,1,97.5,48.75,48.75,48.75,0,0,1,48.75,97.5Zm0-94.25a45.5,45.5,0,1,0,45.5,45.5A45.5,45.5,0,0,0,48.75,3.25Z"/><path class="cls-2" d="M41.81,62.93a1.64,1.64,0,0,1-1.15-.47L26.87,48.67a1.63,1.63,0,0,1,2.3-2.3L41.81,59,68.24,32.58a1.62,1.62,0,1,1,2.33,2.26l0,0L43,62.46a1.65,1.65,0,0,1-1.15.47Z"/></g></g></svg>